{
    "asset" : {
        "generator" : "Khronos glTF Blender I/O v0.9.36",
        "version" : "2.0"
    },
    "extensionsUsed" : [
        "KHR_lights_punctual"
    ],
    "extensionsRequired" : [
        "KHR_lights_punctual"
    ],
    "extensions" : {
        "KHR_lights_punctual" : {
            "lights" : [
                {
                    "color" : [
                        1,
                        1,
                        1
                    ],
                    "intensity" : 1,
                    "type" : "directional",
                    "name" : "Light"
                }
            ]
        }
    },
    "scene" : 0,
    "scenes" : [
        {
            "name" : "Scene",
            "nodes" : [
                1,
                2,
                3,
                4,
                5
            ]
        }
    ],
    "nodes" : [
        {
            "extensions" : {
                "KHR_lights_punctual" : {
                    "light" : 0
                }
            },
            "name" : "Light_Orientation",
            "rotation" : [
                -0.7071067690849304,
                0,
                0,
                0.7071067690849304
            ]
        },
        {
            "children" : [
                0
            ],
            "name" : "Light",
            "rotation" : [
                0.3696136772632599,
                -0.28630685806274414,
                0.260682612657547,
                0.8446648120880127
            ],
            "translation" : [
                -6.332088947296143,
                4.382169723510742,
                4.6120781898498535
            ]
        },
        {
            "mesh" : 0,
            "name" : "Pager",
            "scale" : [
                2.437276840209961,
                1.3459999561309814,
                0.33982616662979126
            ],
            "translation" : [
                0,
                -0.13723957538604736,
                -0.04357088729739189
            ]
        },
        {
            "mesh" : 1,
            "name" : "Ticker",
            "scale" : [
                1.9265015125274658,
                0.2749573886394501,
                0.20867912471294403
            ],
            "translation" : [
                0,
                -0.11428475379943848,
                0.4016857445240021
            ]
        },
        {
            "mesh" : 2,
            "name" : "Glass",
            "scale" : [
                2.011251926422119,
                0.35763028264045715,
                0.21785932779312134
            ],
            "translation" : [
                0,
                -0.12621831893920898,
                0.4471712112426758
            ]
        },
        {
            "mesh" : 3,
            "name" : "TickerBG",
            "scale" : [
                2.0039303302764893,
                0.36203181743621826,
                0.21947255730628967
            ],
            "translation" : [
                0,
                -0.11428475379943848,
                0.3979237973690033
            ]
        }
    ],
    "materials" : [
        {
            "doubleSided" : true,
            "name" : "BlackPlastic",
            "pbrMetallicRoughness" : {
                "baseColorFactor" : [
                    0.03521791473031044,
                    0.03521791473031044,
                    0.03521791473031044,
                    1
                ],
                "metallicFactor" : 0,
                "roughnessFactor" : 0.5
            }
        },
        {
            "doubleSided" : true,
            "name" : "_TICKER_MAT",
            "pbrMetallicRoughness" : {
                "baseColorFactor" : [
                    1,
                    0,
                    0.9573588371276855,
                    1
                ],
                "metallicFactor" : 0,
                "roughnessFactor" : 0.5
            }
        },
        {
            "alphaMode" : "BLEND",
            "doubleSided" : true,
            "name" : "PlasticGlass",
            "pbrMetallicRoughness" : {
                "baseColorFactor" : [
                    0.01163941528648138,
                    0.01163941528648138,
                    0.01163941528648138,
                    0.16428528726100922
                ],
                "metallicFactor" : 0,
                "roughnessFactor" : 0.5
            }
        },
        {
            "doubleSided" : true,
            "name" : "BLACK",
            "pbrMetallicRoughness" : {
                "baseColorFactor" : [
                    0,
                    0,
                    0,
                    1
                ],
                "metallicFactor" : 0,
                "roughnessFactor" : 0.5
            }
        }
    ],
    "meshes" : [
        {
            "name" : "Cube.002",
            "primitives" : [
                {
                    "attributes" : {
                        "POSITION" : 0,
                        "NORMAL" : 1,
                        "TEXCOORD_0" : 2
                    },
                    "indices" : 3,
                    "material" : 0
                }
            ]
        },
        {
            "name" : "Cube.005",
            "primitives" : [
                {
                    "attributes" : {
                        "POSITION" : 4,
                        "NORMAL" : 5,
                        "TEXCOORD_0" : 6
                    },
                    "indices" : 7,
                    "material" : 1
                }
            ]
        },
        {
            "name" : "Cube.006",
            "primitives" : [
                {
                    "attributes" : {
                        "POSITION" : 8,
                        "NORMAL" : 9,
                        "TEXCOORD_0" : 10
                    },
                    "indices" : 7,
                    "material" : 2
                }
            ]
        },
        {
            "name" : "Cube.007",
            "primitives" : [
                {
                    "attributes" : {
                        "POSITION" : 11,
                        "NORMAL" : 12,
                        "TEXCOORD_0" : 13
                    },
                    "indices" : 7,
                    "material" : 3
                }
            ]
        }
    ],
    "accessors" : [
        {
            "bufferView" : 0,
            "componentType" : 5126,
            "count" : 762,
            "max" : [
                0.998929500579834,
                0.4879527688026428,
                1.1282151937484741
            ],
            "min" : [
                -0.998929500579834,
                -0.4879527688026428,
                -0.8717848062515259
            ],
            "type" : "VEC3"
        },
        {
            "bufferView" : 1,
            "componentType" : 5126,
            "count" : 762,
            "type" : "VEC3"
        },
        {
            "bufferView" : 2,
            "componentType" : 5126,
            "count" : 762,
            "type" : "VEC2"
        },
        {
            "bufferView" : 3,
            "componentType" : 5123,
            "count" : 2544,
            "type" : "SCALAR"
        },
        {
            "bufferView" : 4,
            "componentType" : 5126,
            "count" : 4,
            "max" : [
                1,
                1,
                -0.5086215138435364
            ],
            "min" : [
                -1,
                -1,
                -0.5086215138435364
            ],
            "type" : "VEC3"
        },
        {
            "bufferView" : 5,
            "componentType" : 5126,
            "count" : 4,
            "type" : "VEC3"
        },
        {
            "bufferView" : 6,
            "componentType" : 5126,
            "count" : 4,
            "type" : "VEC2"
        },
        {
            "bufferView" : 7,
            "componentType" : 5123,
            "count" : 6,
            "type" : "SCALAR"
        },
        {
            "bufferView" : 8,
            "componentType" : 5126,
            "count" : 4,
            "max" : [
                1,
                1,
                -0.5086215138435364
            ],
            "min" : [
                -1,
                -1,
                -0.5086215138435364
            ],
            "type" : "VEC3"
        },
        {
            "bufferView" : 9,
            "componentType" : 5126,
            "count" : 4,
            "type" : "VEC3"
        },
        {
            "bufferView" : 10,
            "componentType" : 5126,
            "count" : 4,
            "type" : "VEC2"
        },
        {
            "bufferView" : 11,
            "componentType" : 5126,
            "count" : 4,
            "max" : [
                1,
                1,
                -0.5086215138435364
            ],
            "min" : [
                -1,
                -1,
                -0.5086215138435364
            ],
            "type" : "VEC3"
        },
        {
            "bufferView" : 12,
            "componentType" : 5126,
            "count" : 4,
            "type" : "VEC3"
        },
        {
            "bufferView" : 13,
            "componentType" : 5126,
            "count" : 4,
            "type" : "VEC2"
        }
    ],
    "bufferViews" : [
        {
            "buffer" : 0,
            "byteLength" : 9144,
            "byteOffset" : 0
        },
        {
            "buffer" : 0,
            "byteLength" : 9144,
            "byteOffset" : 9144
        },
        {
            "buffer" : 0,
            "byteLength" : 6096,
            "byteOffset" : 18288
        },
        {
            "buffer" : 0,
            "byteLength" : 5088,
            "byteOffset" : 24384
        },
        {
            "buffer" : 0,
            "byteLength" : 48,
            "byteOffset" : 29472
        },
        {
            "buffer" : 0,
            "byteLength" : 48,
            "byteOffset" : 29520
        },
        {
            "buffer" : 0,
            "byteLength" : 32,
            "byteOffset" : 29568
        },
        {
            "buffer" : 0,
            "byteLength" : 12,
            "byteOffset" : 29600
        },
        {
            "buffer" : 0,
            "byteLength" : 48,
            "byteOffset" : 29612
        },
        {
            "buffer" : 0,
            "byteLength" : 48,
            "byteOffset" : 29660
        },
        {
            "buffer" : 0,
            "byteLength" : 32,
            "byteOffset" : 29708
        },
        {
            "buffer" : 0,
            "byteLength" : 48,
            "byteOffset" : 29740
        },
        {
            "buffer" : 0,
            "byteLength" : 48,
            "byteOffset" : 29788
        },
        {
            "buffer" : 0,
            "byteLength" : 32,
            "byteOffset" : 29836
        }
    ],
    "buffers" : [
        {
            "byteLength" : 29868,
            "uri" : "data:application/octet-stream;base64,"
        }
    ]
}
